# xmcd CD database file
#
# Track frame offsets:
#	150
#	14206
#	29855
#	42372
#	68362
#	101588
#	119883
#	132481
#	149885
#	165885
#	177133
#	189758
#	209241
#	220516
#
# Disc length: 3125 seconds
#
# Revision: 0
# Processed by: cddbd v1.5.2PL0 Copyright (c) Steve Scherf et al.
# Submitted via: CDex 1.51
#
DISCID=da0c330e
DTITLE=Louis Armstrong - Louis Armstrong - LAVIEENROSE
DYEAR=1955
DGENRE=Jazz
TTITLE0=C'EST SI Bon 01
TTITLE1=LA VIE EN ROSE 02
TTITLE2=RAMONA 03
TTITLE3=TWELFTH STREET BLUES 04
TTITLE4=BASIN STREET BLUES 05
TTITLE5=AIN'T MISBEHAVIN 06
TTITLE6=APRIL IN PORTUGAL 07
TTITLE7=SKOKIAAN 08
TTITLE8=PRETTY LITTLE MISSY 09
TTITLE9=I LOVE JAZZ 10
TTITLE10=YOUR CHEATIN' HEART 11
TTITLE11=YELLOW DOG BLUES 12
TTITLE12=FROG I MORE RAG 13
TTITLE13=KISS OF FIRE 14
EXTD=YEAR: 1955
EXTT0=
EXTT1=
EXTT2=
EXTT3=
EXTT4=
EXTT5=
EXTT6=
EXTT7=
EXTT8=
EXTT9=
EXTT10=
EXTT11=
EXTT12=
EXTT13=
PLAYORDER=
